<?xml version="1.0" encoding="utf-8"?>
<!-- Generator: Adobe Illustrator 25.4.1, SVG Export Plug-In . SVG Version: 6.00 Build 0)  -->
<svg version="1.1" id="Horizontal_Versions" xmlns="http://www.w3.org/2000/svg" xmlns:xlink="http://www.w3.org/1999/xlink"
	 x="0px" y="0px" viewBox="0 0 391.4 137.4" style="enable-background:new 0 0 391.4 137.4;" xml:space="preserve">
<style type="text/css">
	.st0{fill:#28394D;}
	.st1{fill:#D4AF37;}
</style>
<g id="Primary">
	<g>
		<g>
			<polygon class="st0" points="373.6,41.3 382.7,47.1 382.7,106.2 373.6,106.2 			"/>
			<polygon class="st1" points="371.4,26.8 361.4,33 361.4,45.4 371.4,39.1 			"/>
			<polygon class="st0" points="359.2,34.3 338,47.5 338,106.2 359.2,106.2 359.2,97 347.2,97 347.2,54.1 359.2,46.7 			"/>
			<polygon class="st0" points="371.4,41.7 361.4,47.9 361.4,106.2 371.4,106.2 			"/>
			<polygon class="st1" points="359.2,49.4 349.5,55.4 349.5,94.8 359.2,94.8 			"/>
			<path class="st1" d="M359.2,34.3"/>
			<path class="st1" d="M359.2,34.3"/>
		</g>
		<g>
			<path class="st0" d="M149.7,47.8h-0.4l-5.1,0.6l0,24.5h-12c-0.6,0-1.5-0.3-2.5-0.8c-1.1-0.6-2.4-1.5-4-2.9
				c-1.6-1.3-3.5-3.2-5.7-5.5c-2.2-2.3-4.7-5.2-7.6-8.6H112l-3.3,4c1.9,2.3,3.7,4.4,5.4,6.4c1.8,1.9,3.4,3.6,5,4.9
				c1.2,1,2.3,1.8,3.3,2.5H100V47.8h-0.4l-5.1,0.6l-0.1,24.5H84.3V57.1h-0.4l-5.1,0.6l0,15.1h-4.7c-0.6,0-1.5-0.3-2.5-0.8
				c-1.1-0.6-2.4-1.5-4-2.9C66,67.8,64.2,66,62,63.7c-2.2-2.3-4.7-5.2-7.6-8.6h-0.4l-3.3,4c1.9,2.3,3.7,4.4,5.4,6.4
				c1.8,1.9,3.4,3.6,5,4.9c1.2,1,2.3,1.8,3.3,2.5H42V57.1h-0.4l-5.1,0.6l0.1,15.1h-9.2V55.5H27l-5.1,0.6v2.1
				c-1.5,0.6-2.9,1.2-4.1,1.7c-1.9,0.9-3.4,1.7-4.6,2.5c-1.2,0.8-2.1,1.7-2.7,2.5c-0.6,0.9-1.1,1.7-1.3,2.6
				c-0.2,0.9-0.4,1.7-0.4,2.6c0,1.5,0.3,2.8,1,3.9c0.6,1.1,1.5,2,2.6,2.6c1.1,0.6,2.3,0.9,3.7,0.9c1.2,0,2.3-0.2,3.3-0.6
				c1-0.4,1.8-0.9,2.5-1.5c0.4-0.3,0.7-0.6,0.9-0.9v2.9h120.2c1.6,0,6.8,0,6.8,0L149.7,47.8z M21.9,71.4c-0.4,0.3-0.9,0.6-1.3,0.8
				c-0.9,0.5-1.9,0.8-2.9,0.8c-1,0-1.9-0.3-2.7-1c-0.7-0.6-1.1-1.6-1.1-2.8c0-0.7,0.1-1.4,0.3-2c0.1-0.3,0.1-0.5,0.2-0.8
				c0.6-0.4,1.2-0.8,1.8-1.2c1.1-0.6,2.2-1.2,3.4-1.7c0.7-0.3,1.5-0.6,2.4-1V71.4z"/>
			<path class="st0" d="M156.5,48.4l5.7-0.6v29.8l-5.7,0V48.4z"/>
			<path class="st0" d="M321.8,48.4l5.7-0.6v29.8l-5.7,0V48.4z"/>
			<path class="st0" d="M244.2,66.2c-0.5-1.2-1-2.3-1.7-3.2c-0.7-1-1.3-1.8-2-2.4H240c-0.8,0.2-1.8,0.3-2.9,0.4
				c-1.2,0.1-2.3,0.1-3.5,0.1h-23.1l10.8-9.8l-2.2-3.4h-0.4L203.4,62c0.1,1.4,0.5,2.4,1.2,3c0.7,0.5,1.6,0.8,2.5,0.8H233
				c0.8,0,1.6,0,2.2-0.1c0.6,0,1.3-0.1,2-0.2c0.2,0,0.5-0.1,0.7-0.1c0.4,0.5,0.7,1.1,1,1.7c0.4,1,0.7,1.9,0.7,2.8
				c0,1.1-0.4,1.8-1.1,2.3c-0.7,0.5-1.9,0.7-3.6,0.7h-39.1V55.5h-0.4l-5.1,0.6v2.1c-1.5,0.6-2.9,1.2-4.1,1.7
				c-1.9,0.9-3.4,1.7-4.6,2.5c-1.2,0.8-2.1,1.7-2.7,2.5c-0.6,0.9-1.1,1.7-1.3,2.6c-0.2,0.9-0.4,1.7-0.4,2.6c0,1.5,0.3,2.8,1,3.9
				c0.6,1.1,1.5,2,2.6,2.6c1.1,0.6,2.3,0.9,3.7,0.9c1.2,0,2.3-0.2,3.3-0.6c1-0.4,1.8-0.9,2.5-1.5c0.4-0.3,0.7-0.6,0.9-0.9v2.9h43.5
				c2,0,3.7-0.2,5-0.6c1.3-0.4,2.4-0.9,3.2-1.7c0.8-0.7,1.4-1.5,1.7-2.5c0.3-0.9,0.5-1.9,0.5-3C244.9,68.6,244.7,67.3,244.2,66.2z
				 M190.2,71.4c-0.4,0.3-0.9,0.6-1.3,0.8c-0.9,0.5-1.9,0.8-2.9,0.8c-1,0-1.9-0.3-2.7-1c-0.7-0.6-1.1-1.6-1.1-2.8
				c0-0.7,0.1-1.4,0.3-2c0.1-0.3,0.1-0.5,0.2-0.8c0.6-0.4,1.2-0.8,1.8-1.2c1.1-0.6,2.2-1.2,3.4-1.7c0.7-0.3,1.5-0.6,2.4-1V71.4z"/>
			<path class="st0" d="M315,77.5l-53.2,0.2c-0.1,0.5-0.2,0.9-0.3,1.3c-0.5,2.1-1.3,3.7-2.4,5.1c-1,1.3-2.3,2.3-3.9,2.9
				c-1.5,0.6-3.3,0.9-5.3,0.9c-0.7,0-1.4,0-2.1-0.1c-0.7-0.1-1.5-0.2-2.5-0.3V87l1.3-4.4c0.6,0.2,1.2,0.3,1.9,0.4s1.4,0.2,2.1,0.2
				c1,0,2-0.1,3-0.4c0.5-0.1,1-0.3,1.4-0.4c0.3-0.5,0.5-1.1,0.7-1.7c0.3-1,0.6-2.3,0.8-3.7c0.2-1.5,0.3-3.1,0.3-5.1
				c0-2.2-0.1-4.3-0.3-6.2c-0.2-1.9-0.4-3.8-0.6-5.5l5.3-0.6h0.4c0.2,1.8,0.4,3.6,0.6,5.6c0.1,2,0.2,4.1,0.2,6.4c0,0.5,0,0.9,0,1.4
				l10.2-0.1l0-12.4l5.1-0.6h0.4v13.1l5.8-0.1l0-13.8l5.1-0.6h0.4v14.4l5.8-0.1v-15l5.2-0.6h0.4v15.7l9-0.1l0-24.4l5.1-0.6h0.4
				L315,77.5z"/>
			
				<rect x="12.9" y="47.6" transform="matrix(0.7071 0.7071 -0.7071 0.7071 39.6823 3.8458)" class="st0" width="4.5" height="4.5"/>
			
				<rect x="19.6" y="47.6" transform="matrix(0.7071 0.7071 -0.7071 0.7071 41.6243 -0.8427)" class="st0" width="4.5" height="4.5"/>
			
				<rect x="181.2" y="47.6" transform="matrix(0.7071 0.7071 -0.7071 0.7071 88.9713 -115.1484)" class="st0" width="4.5" height="4.5"/>
			
				<rect x="187.9" y="47.6" transform="matrix(0.7071 0.7071 -0.7071 0.7071 90.9133 -119.8369)" class="st0" width="4.5" height="4.5"/>
			
				<rect x="281.6" y="50.8" transform="matrix(0.7071 0.7071 -0.7071 0.7071 120.6243 -185.2001)" class="st0" width="4.5" height="4.5"/>
			
				<rect x="288.2" y="50.8" transform="matrix(0.7071 0.7071 -0.7071 0.7071 122.5663 -189.8886)" class="st0" width="4.5" height="4.5"/>
			
				<rect x="284.9" y="45.5" transform="matrix(0.7071 0.7071 -0.7071 0.7071 117.8445 -189.098)" class="st0" width="4.5" height="4.5"/>
			<rect x="32" y="81.5" transform="matrix(0.7071 0.7071 -0.7071 0.7071 69.2805 0.2862)" class="st0" width="4.5" height="4.5"/>
			
				<rect x="38.7" y="81.5" transform="matrix(0.7071 0.7071 -0.7071 0.7071 71.2225 -4.4023)" class="st0" width="4.5" height="4.5"/>
			
				<rect x="74.2" y="81.5" transform="matrix(0.7071 0.7071 -0.7071 0.7071 81.6319 -29.5327)" class="st0" width="4.5" height="4.5"/>
			
				<rect x="56.4" y="81.5" transform="matrix(0.7071 0.7071 -0.7071 0.7071 76.4272 -16.9675)" class="st0" width="4.5" height="4.5"/>
			
				<rect x="122.2" y="54.6" transform="matrix(0.7071 0.7071 -0.7071 0.7071 76.6569 -71.3621)" class="st0" width="4.5" height="4.5"/>
			
				<rect x="80.8" y="81.5" transform="matrix(0.7071 0.7071 -0.7071 0.7071 83.5739 -34.2212)" class="st0" width="4.5" height="4.5"/>
		</g>
		<g>
			<path class="st1" d="M19,105.4v-4.8h-1.6c-0.4,0-0.8,0.6-0.8,1.1l0,4.2c0,1.3-1,2.3-2.3,2.3h-2.3c-1.3,0-2.4-1.1-2.4-2.4v-3H11v3
				c0,0.5,0.5,1,0.9,1h2.5c0.4,0,0.8-0.4,0.8-0.9v-4.3c0-1.3,1-2.4,2.2-2.4h2.8v6.1H19z M13,109.9c0-0.4-0.4-0.8-0.8-0.8
				c-0.4,0-0.8,0.4-0.8,0.8c0,0.4,0.4,0.8,0.8,0.8C12.6,110.7,13,110.3,13,109.9z M15.1,109.9c0-0.4-0.4-0.8-0.8-0.8
				c-0.4,0-0.8,0.4-0.8,0.8c0,0.4,0.4,0.8,0.8,0.8C14.7,110.7,15.1,110.3,15.1,109.9z"/>
			<path class="st1" d="M21.6,107.5l0.8-1c0.3,0.3,0.6,0.3,0.8,0.3h0.5c0.8,0,0.9-1,0.9-1.5v-6h1.4v5.9c0,1.8-0.6,2.9-2.3,2.9h-0.3
				C22.4,108.2,21.9,107.8,21.6,107.5z"/>
			<path class="st1" d="M74.7,95.8v7.4c0,0.4-0.4,0.8-0.8,0.8h-8.4c0.8-1.1,1.1-3,0.2-3.9c-0.6-0.6-1.2-0.9-2.5-0.9h-2.1l-0.3,1.7
				c-0.3,1.2,0,2.4,0.8,3.1h-12c-0.8,0-1.2-0.3-1.2-1v-3.9h-3c-1.3,0-2.3,1.1-2.3,2.4v1.3c0,0.5,0.1,1,0.3,1.2l-0.2,0.1H30.1
				c-0.4,0-0.8-0.4-0.8-0.8l0-7.4H28v7.3c0,1.2,1,2.2,2.2,2.2h15.8c0.5,0,1-0.3,1.5-0.7c0.5,0.5,1,0.7,1.6,0.7h24.8
				c1.2,0,2.2-1,2.2-2.2v-7.3H74.7z M46.9,103.1c0,0.4-0.4,1-1,1H45c-0.4,0-0.7-0.4-0.7-1v-1.6c0-0.5,0.4-1,0.9-1h1.8V103.1z
				 M63.1,104.1c-1.1-1.4-1.3-1.9-0.9-3.6l1.2,0c0.8,0,1,0.1,1.4,0.5C65.7,101.9,64.7,104,63.1,104.1z"/>
			<path class="st1" d="M44.6,96.7c-0.4,0-0.8,0.4-0.8,0.8c0,0.4,0.4,0.8,0.8,0.8c0.4,0,0.8-0.4,0.8-0.8C45.3,97,45,96.7,44.6,96.7z
				 M47.2,96.7c-0.4,0-0.8,0.4-0.8,0.8c0,0.4,0.4,0.8,0.8,0.8c0.4,0,0.8-0.4,0.8-0.8C48,97,47.6,96.7,47.2,96.7z"/>
			<path class="st1" d="M79.1,95.8v9.6h-1.3v-9.6H79.1z"/>
			<path class="st1" d="M109.5,99.4v3.6c0,1.3-1,2.3-2.3,2.3H89.7c-0.3,0-0.8-0.1-0.9-0.3v0.4c0,1.8-0.7,2.8-2.3,2.8h-0.3
				c-0.8,0-1.3-0.3-1.6-0.7l0.8-1c0.3,0.3,0.6,0.3,0.8,0.3h0.4c0.8,0,0.9-1,0.9-1.5v-6.1h1.4v3.9c0,0.6,0.3,0.9,0.7,0.9h17.8
				c0.5,0,0.9-0.5,0.9-1v-3.7H109.5z"/>
			<path class="st1" d="M108.6,106.3c-0.4,0-0.8,0.4-0.8,0.8c0,0.4,0.4,0.8,0.8,0.8c0.4,0,0.8-0.4,0.8-0.8
				C109.4,106.7,109.1,106.3,108.6,106.3z M106,106.3c-0.4,0-0.8,0.4-0.8,0.8c0,0.4,0.4,0.8,0.8,0.8c0.4,0,0.8-0.4,0.8-0.8
				C106.8,106.7,106.4,106.3,106,106.3z"/>
			<path class="st1" d="M158.7,95.8v7.4c0,0.4-0.4,0.8-0.8,0.8h-12.7c-0.5,0-0.9-0.4-0.9-0.9v-3.7H143v3.9c0,0.4-0.4,0.8-0.8,0.8
				h-7.6c-0.9,0-1.5-0.1-1.5-0.8v-1.7c0-1.3-1-2.4-2-2.4l-4.3,1v-4.4h-1.3v8.3h-8.8v-4.9h-2.9c-1.2,0-2.1,1-2.1,2.4v1.6
				c0,1.2,1,2.2,2.3,2.2h1.4v0.6c0,0.5-0.4,0.9-0.9,0.9h-1c-0.3,0-0.7,0-1.1-0.4l-0.8,0.8c0.4,0.5,1.2,0.8,2,0.8h0.7
				c1.3,0,2.3-1,2.3-2.3v-0.6h1.2v0h13c0.5,0,1.2-0.3,1.6-0.8c0.3,0.6,1.1,0.8,1.7,0.8h8c0.5,0,1.1-0.2,1.6-0.7
				c0.3,0.4,1,0.7,1.6,0.7h12.4c1.2,0,2.2-1,2.2-2.2v-7.3H158.7z M115.3,104.1h-1.5c-0.7,0-1.1-0.4-1.1-0.9v-1.6
				c0-0.6,0.4-1.2,0.9-1.2l1.7,0V104.1z M131.8,103c0,0.6-0.5,1.1-1,1.1h-4v-2.6l4.2-0.9c0.4,0,0.8,0.5,0.8,1V103z"/>
			<path class="st1" d="M140.2,96.7c-0.4,0-0.8,0.4-0.8,0.8c0,0.4,0.4,0.8,0.8,0.8c0.4,0,0.8-0.4,0.8-0.8
				C141,97,140.7,96.7,140.2,96.7z M142.9,96.7c-0.4,0-0.8,0.4-0.8,0.8c0,0.4,0.4,0.8,0.8,0.8c0.4,0,0.8-0.4,0.8-0.8
				C143.7,97,143.3,96.7,142.9,96.7z"/>
			<path class="st1" d="M163,95.8v9.6h-1.3v-9.6H163z"/>
			<path class="st1" d="M170.1,106c0,1.2-1,2.3-2.3,2.3h-0.7c-0.7,0-1.5-0.3-1.9-0.8l0.7-0.8c0.4,0.3,0.8,0.4,1.1,0.4h1
				c0.5,0,0.9-0.4,0.9-0.9v-0.6h-1.4c-1.3,0-2.3-0.9-2.3-2.2v-1.6c0-1.4,0.9-2.4,2.1-2.4h2.9V106z M168.8,102.3v-1.9l-1.7,0
				c-0.5,0-0.9,0.5-0.9,1.2v1.6c0,0.6,0.4,0.9,1.1,0.9h1.5C168.8,103.9,168.8,103.1,168.8,102.3z"/>
			<path class="st1" d="M181.4,96.2c-0.4,0-0.8,0.3-0.8,0.8c0,0.4,0.4,0.8,0.8,0.8c0.4,0,0.8-0.4,0.8-0.8
				C182.2,96.5,181.8,96.2,181.4,96.2z M178.9,96.2c-0.4,0-0.8,0.4-0.8,0.8c0,0.4,0.4,0.8,0.8,0.8c0.4,0,0.8-0.4,0.8-0.8
				C179.7,96.5,179.3,96.2,178.9,96.2z"/>
			<path class="st1" d="M213.5,99.3v4c0,0.5-0.4,0.9-0.8,0.9h-0.4c-0.5,0-0.9-0.4-0.9-1v-2.8H210v2.9c0,0.5-0.4,0.9-0.8,0.9h-0.4
				c-0.5,0-0.9-0.5-0.9-1v-2.8h-1.3v2.8c0,0.7-0.3,1-0.7,1h-6.7c-0.5,0-0.9-0.4-0.9-0.9v-3.7H197v3.9c0,0.4-0.4,0.8-0.8,0.8H183
				c-0.5,0-0.8-0.5-0.8-1v-3.9h-3c-1.2,0-2.2,1.1-2.2,2.4v1c0,1.4,1.1,2.5,2.4,2.5c1.1,0,1.4-0.1,2.1-0.7c0.3,0.7,0.9,1.1,1.6,1.1
				h13c0.5,0,1.1-0.2,1.5-0.7c0.3,0.4,1,0.7,1.6,0.7h6.5c0.7,0,1.2-0.2,1.6-0.7c0.5,0.4,1.1,0.7,1.6,0.7c0.8,0,1.4-0.2,1.9-0.7
				c0.5,0.4,1,0.7,1.6,0.7h0.2c1.2,0,2.2-1,2.2-2.3v-3.9H213.5z M180.9,103c0,0.3-0.4,0.8-0.8,0.8h-0.8c-0.5,0-0.9-0.5-0.9-1v-1.1
				c0-0.5,0.3-1.1,0.8-1.1h1.7V103z"/>
			<path class="st1" d="M195,106.3c-0.4,0-0.8,0.4-0.8,0.8c0,0.4,0.4,0.8,0.8,0.8c0.4,0,0.8-0.4,0.8-0.8
				C195.8,106.7,195.4,106.3,195,106.3z M197.7,106.3c-0.4,0-0.8,0.4-0.8,0.8c0,0.4,0.4,0.8,0.8,0.8c0.4,0,0.8-0.4,0.8-0.8
				C198.5,106.7,198.1,106.3,197.7,106.3z"/>
			<path class="st1" d="M253.7,95.8v7.4c0,0.4-0.4,0.8-0.8,0.8h-7.5c0.2-0.4,0.3-0.8,0.3-1.1v-1.5c0-1.3-1.1-2.4-2.5-2.4l-0.6,0
				c-1.2,0-2.2,1.1-2.2,2.3v2.8h-7.1c-0.5,0-0.9-0.4-0.9-0.9v-3.7h-1.3v3.9c0,0.4-0.4,0.8-0.8,0.8h-8.1v-2c0-1.7-1.5-3-3.2-3
				c-0.5,0-0.7,0-1.6,0.3v1.3c1-0.3,1.1-0.4,1.5-0.4c1.1,0,2,0.8,2,1.9v1.9h-4.2v1.3h13.5c0.5,0,1-0.2,1.5-0.7
				c0.3,0.4,1.1,0.7,1.7,0.7h5.9v0h1.1v0.6c0,1,1,2.2,2.3,2.2h2.2l0.6-1c-0.1-0.3-0.3-0.8-0.8-1.9h1.1v0h7c1.2,0,2.2-1,2.2-2.2v-7.3
				H253.7z M242.9,106.9c-0.6,0-1.1-0.5-1.1-1v-0.6h1.8l0.6,1.6H242.9z M244.3,103c0,0.4-0.1,1.1-0.7,1.1h-1.8v-2.7
				c0-0.6,0.5-1,1.1-1h0.4c0.7,0,1,0.4,1,1V103z"/>
			<path class="st1" d="M231.8,96.7c-0.4,0-0.8,0.4-0.8,0.8c0,0.4,0.4,0.8,0.8,0.8c0.4,0,0.8-0.4,0.8-0.8
				C232.6,97,232.2,96.7,231.8,96.7z"/>
			<path class="st1" d="M258.1,95.8v9.6h-1.3v-9.6H258.1z"/>
			<path class="st1" d="M272.2,105.9c0,1.3-1,2.3-2.3,2.3h-2.4c-1.2,0-2.3-1-2.4-2.2v-3.1h1.4v3.1c0.1,0.6,0.5,1,1,1h2.5
				c0.5,0,0.9-0.4,0.9-0.9l0-10.2h1.4L272.2,105.9z"/>
			<path class="st1" d="M309.4,104.1c-0.5,0-0.9-0.4-0.9-0.9v-1.7c0-0.2,0.1-0.4,0.2-0.5c0.2-0.3,0.6-0.3,0.9-0.3l2,0.6v-1.3
				l-1.7-0.5c-0.8-0.2-1.8,0.1-2.3,0.8c-0.3,0.4-0.4,0.8-0.4,1.2c0,0.1,0,0.5,0,0.9c0,0.3,0,0.6,0,0.7c0,0.6,0.1,0.9,0.4,1h-6.7
				c-1,0-1.3-0.4-1.3-1v-1.4c0-1.3-1-2.3-2.3-2.3h-3v3.9c0,0.4-0.4,0.8-0.8,0.8h-17.4c-0.4,0-0.8-0.4-0.8-0.8l0-7.4h-1.3v7.3
				c0,1.2,1,2.2,2.2,2.2h17.2c0.6,0,1.2-0.3,1.7-0.7l1.4,0.4c0.8,0.3,1.7,0.1,2.3-0.4c0.5,0.4,0.9,0.7,1.5,0.7h11.5v-1.3H309.4z
				 M298.3,103.1c0,0.6-0.6,1-1.1,0.8l-1.4-0.4v-2.8h1.7c0.4,0,0.8,0.5,0.8,0.9V103.1z"/>
			<path class="st1" d="M317.5,96.3c-0.2,0-0.3-0.2-0.3-0.3v-0.3c0-0.2,0.2-0.4,0.4-0.4h1v-0.8h-1.1c-0.6,0-1.1,0.5-1.1,1.1V96
				c0,0.1,0,0.2,0.1,0.4h-0.4v0.8h2.5v-0.8H317.5z"/>
			<path class="st1" d="M326.8,95.8v7.3c0,1.2-1,2.2-2.2,2.2h-2.2c-0.6,0-1.2-0.2-1.6-0.7c-0.3,0.4-0.7,0.7-1.5,0.7h-5.4v-1.3h2.8
				v-6h1.3v6h1.4c0.4,0,0.8-0.4,0.8-0.8v-8h1.3v8.1c0,0.4,0.5,0.7,0.9,0.7h0.9v0h1.5c0.4,0,0.8-0.4,0.8-0.8v-7.4H326.8z"/>
		</g>
	</g>
</g>
</svg>
